<?xml version="1.0"?>
<svg width="500" height="500" xmlns="http://www.w3.org/2000/svg" xmlns:svg="http://www.w3.org/2000/svg">
 <!-- Created with SVG-edit - https://github.com/SVG-Edit/svgedit-->
 <g class="layer">
  <title>Layer 1</title>
  <circle cx="241" cy="83.5" fill="#ffffff" id="svg_47" r="54.98" stroke="#000000"/>
  <ellipse cx="245.5" cy="319.5" fill="#ffffff" id="svg_48" rx="209" ry="178.5" stroke="#000000"/>
  <rect fill="#000000" height="63" id="svg_49" stroke="#000000" transform="matrix(1 0 0 1 0 0)" width="462" x="20.5" y="134"/>
  <rect fill="#000000" height="55" id="svg_50" stroke="#000000" transform="rotate(-35.1723 114 426.5)" width="167" x="30.5" y="399"/>
  <rect fill="#000000" height="55" id="svg_51" stroke="#000000" transform="rotate(-146.31 399.5 423.5)" width="167" x="316" y="396"/>
  <ellipse cx="219.5" cy="65" fill="#000000" id="svg_52" rx="8" ry="24" stroke="#000000" transform="rotate(38.6598 219.5 65)"/>
  <ellipse cx="264.5" cy="69.5" fill="#000000" id="svg_53" rx="8" ry="24" stroke="#000000" transform="rotate(-34.6584 264.5 69.5)"/>
  <path d="m185.5,75c0,-1.96 0,-2.85 0,-4.34c0,-0.67 0,-1.42 0,-2.28c0,-0.96 0,-2.02 0,-3.2c0,-1.29 0,-4.25 0,-5.91c0,-1.76 0,-3.58 0,-5.43c0,-1.84 0,-3.64 0,-5.37c0,-1.61 0,-4.37 0,-5.46c0,-0.89 0,-1.61 0,-2.19c0,-0.44 0,-0.78 0,-1.03c0,-0.19 0,-0.45 0,-0.57c0,-0.12 -0.01,-0.24 0.01,-0.36c0.13,-0.86 0.47,-1.83 1.04,-2.67c0.5,-0.74 1.02,-1.15 1.33,-1.84c0.54,-1.17 1.45,-2.95 2.05,-4.11c0.69,-1.31 1.44,-2.74 2.24,-4.24c0.82,-1.54 1.64,-3.08 2.44,-4.58c0.76,-1.42 2.05,-3.89 2.54,-4.87c0.4,-0.8 0.72,-1.45 0.95,-1.97c0.18,-0.39 0.3,-0.69 0.39,-0.9c0.06,-0.15 0.16,-0.32 0.21,-0.37c0.06,-0.05 0.19,-0.14 0.78,-0.74c0.59,-0.6 1.5,-0.6 2.4,-0.59c0.9,0 1.8,0.34 2.41,0.91c0.73,0.67 1.42,1.28 2.18,1.82c0.84,0.59 1.83,0.7 2.39,1.37c0.71,0.85 0.54,1.89 0.78,3.04c0.2,0.96 0.67,1.77 0.81,2.95c0.13,1.08 -0.05,2.19 0.19,3.19c0.25,1.05 0.59,1.7 0.78,2.89c0.17,1.09 0.48,2.1 0.97,3.1l0.25,0.95l0.54,0.83l0.68,0.81" fill="#000000" id="svg_57" stroke="#000000"/>
  <path d="m286.5,47c4.23,-3.95 4.78,-4.34 5.32,-4.75c0.62,-0.47 1.77,-1.46 2.22,-1.88c0.5,-0.47 1.03,-0.98 1.6,-1.54c0.61,-0.59 1.24,-1.23 1.92,-1.9c1.44,-1.44 2.2,-2.2 3,-3c0.83,-0.83 1.71,-1.69 2.62,-2.58c0.96,-0.93 1.96,-1.9 3.03,-2.9c2.27,-2.13 3.51,-3.24 4.78,-4.38c1.29,-1.16 2.58,-2.3 3.86,-3.43c1.24,-1.09 2.43,-2.13 3.54,-3.11c1.94,-1.7 2.72,-2.4 3.39,-2.99c0.57,-0.51 1.04,-0.93 1.44,-1.29c0.33,-0.3 0.61,-0.55 0.85,-0.75c0.41,-0.34 0.61,-0.48 0.82,-0.61c0.2,-0.13 0.4,-0.24 0.6,-0.34c0.2,-0.1 0.4,-0.19 0.6,-0.26c0.4,-0.13 0.6,-0.17 0.8,-0.2c0.2,-0.03 0.39,-0.05 0.58,-0.06c0.18,-0.01 0.36,-0.02 0.54,-0.02c0.99,-0.02 1.97,-0.29 2.55,-0.52c0.71,-0.28 1.9,-0.69 2.58,-0.87c0.67,-0.18 1.85,-0.49 2.65,-0.57c1,-0.1 2,-0.14 2.52,0.36c0.66,0.65 0.96,1.59 1.19,2.1c0.25,0.55 0.72,1.77 0.94,2.43c0.22,0.67 0.58,2.07 0.7,2.77c0.12,0.7 0.22,1.39 0.3,2.76c0.04,0.67 0.05,1.33 0.06,1.97c0.02,1.83 0.01,2.4 -0.01,3.51c-0.01,0.54 -0.04,1.61 -0.07,2.14c-0.07,1.08 -0.19,2.2 -0.27,2.75c-0.15,1.08 -0.22,1.6 -0.44,2.54c-0.34,1.41 -0.76,2.01 -1.08,2.95c-0.25,0.74 -0.42,1.56 -1.01,2.54c-0.24,0.4 -0.85,1.25 -1.2,1.7c-0.73,0.96 -1.12,1.44 -1.92,2.44c-0.4,0.5 -1.19,1.49 -1.57,1.98c-0.37,0.48 -1.07,1.4 -1.38,1.85c-0.82,1.21 -1.19,1.95 -1.51,2.61c-0.43,0.87 -0.83,1.67 -1.39,2.34c-0.58,0.71 -1.32,1.39 -1.84,1.91c-0.54,0.55 -1.1,1.12 -1.63,1.72c-0.78,0.88 -1.42,1.78 -1.84,2.29c-0.66,0.82 -1.29,1.41 -1.9,1.96c-0.58,0.52 -1.72,0.78 -2.34,1.09c-0.77,0.39 -1.2,0.64 -2.16,1.29c-1.14,0.78 -1.74,1.27 -2.39,1.79c-0.67,0.53 -1.34,1.09 -2.01,1.64c-0.65,0.54 -1.28,1.07 -1.87,1.55c-1.02,0.83 -1.36,1.28 -2.34,1.74c-0.8,0.38 -1.53,0.54 -2.14,1.17c-0.55,0.58 -1.15,1.2 -1.9,1.68c-0.79,0.51 -1.35,1.06 -2.02,1.6c-0.6,0.49 -1.18,0.71 -2.44,1.12c-0.54,0.17 -1.73,0.5 -2.35,0.68c-0.62,0.17 -1.25,0.3 -2.83,0.83c-0.78,0.26 -1.52,0.63 -2.37,1.08l-0.9,0.09" fill="#000000" id="svg_58" stroke="#000000"/>
  <path d="m211.5,105c6.5,2.5 7.27,2.86 8.05,3.25c0.81,0.41 1.63,0.84 2.45,1.29c0.83,0.45 1.64,0.91 2.45,1.38c1.56,0.91 2.29,1.36 2.99,1.79c0.67,0.42 1.31,0.82 1.92,1.21c0.57,0.36 1.1,0.71 1.6,1.03c1.26,0.8 1.91,1.2 2.7,1.63c0.83,0.45 1.61,0.87 2.36,1.15c0.96,0.35 1.81,0.5 2.53,0.81c0.65,0.28 1.64,0.68 2.46,0.98c0.82,0.3 1.81,0.71 2.46,0.98c1.01,0.42 1.74,0.53 2.81,0.74c0.6,0.12 1.63,0.37 2.35,0.49c1.06,0.18 1.73,0.24 2.71,0.27c0.66,0.02 1.7,0.01 2.79,0.01c0.72,0 1.42,0 2.61,0c0.91,0 1.89,0 2.66,0c0.94,0 1.95,0.03 2.71,0c0.88,-0.03 1.47,-0.32 2.41,-1c0.44,-0.32 1.42,-1.12 1.95,-1.56c0.55,-0.46 1.1,-0.92 1.63,-1.38c0.51,-0.44 1.82,-1.52 2.59,-2.28c0.56,-0.55 1.07,-1.23 1.54,-1.86c0.57,-0.77 0.7,-1.47 1.16,-2.14c0.5,-0.73 0.12,-1.78 0.12,-2.58c0,-0.9 -0.06,-1.84 -0.72,-2.28l-0.28,-0.92l0,-0.8l0,-0.84" fill="none" id="svg_59" stroke="#000000"/>
 </g>
</svg>